<svg preserveAspectRatio="none" width="100%" height="100%" overflow="visible" style="display: block;" viewBox="0 0 100 98" fill="none" xmlns="http://www.w3.org/2000/svg">
<g id="Group 1">
<path id="Vector 23" d="M30.2054 75.8691C25.5619 78.4868 23.467 82.3804 23 84H37.1106C35.6095 83.339 35.8728 80.0879 38.2115 78.1499C43.7156 73.5886 46.7179 68.135 43.7156 63.5737C40.7133 59.0125 46.8179 56.93 48.5192 52.0713C50.2205 47.2126 47.3183 41.3623 41.2137 42.0564C35.1091 42.7505 35.3093 49.1957 35.7096 53.6578C36.1099 58.1199 29.3047 56.7317 28.7043 62.582C28.1038 68.4323 36.0098 72.5969 30.2054 75.8691Z" fill="var(--fill-0, #7FC700)"/>
<path id="Vector 24" d="M75.157 79.5474C72.478 80.9809 71.2694 83.1131 71 84H79.1407C78.2747 83.638 78.4266 81.8577 79.7758 80.7964C82.9513 78.2985 84.6834 75.312 82.9513 72.8142C81.2192 70.3164 84.7411 69.176 85.7226 66.5152C86.7041 63.8545 85.0298 60.6508 81.5079 61.0309C77.986 61.411 78.1015 64.9405 78.3324 67.384C78.5634 69.8276 74.6374 69.0674 74.2909 72.2711C73.9445 75.4748 78.5057 77.7554 75.157 79.5474Z" fill="var(--fill-0, #7FC700)"/>
<path id="Vector 22" d="M15.1971 38.1053L18.6472 84H27.4203C28.2089 83.1858 29.7861 80.7841 29.7861 77.6906C29.7861 73.8236 24.1779 72.3284 28.7017 66.7003C32.5461 61.9174 31.0675 59.8822 29.1946 55.8117C26.7336 50.463 28.6032 49.299 31.0675 44.6179C33.4447 40.1023 30.6852 36.5337 29.3369 33.7294C29.2874 33.6266 29.2521 33.518 29.1946 33.4241C28.0117 31.4906 28.2089 29.4555 30.4761 24.9778C32.7433 20.5001 29.4903 17.8545 26.8288 14.191C24.1674 10.5276 25.9417 8.18708 26.336 6.45712C26.7303 4.72717 27.716 0.656864 21.9987 0.0462912C16.2815 -0.564281 15 5.03263 15 6.96611C15 10.5 16.4786 9.71369 15.9857 12.7666C15.4929 15.8194 15.7886 19.4559 18.6472 22C20.9341 24.0352 20.0601 27.556 19.3372 29.4555L15.1971 38.1053Z" fill="var(--fill-0, #009D37)"/>
<path id="Vector 25" d="M68.1044 58.8672L69.9309 84H74.5754C74.9929 83.5542 75.8279 82.2389 75.8279 80.5448C75.8279 78.4272 72.8589 77.6084 75.2539 74.5263C77.2891 71.9072 76.5063 70.7926 75.5148 68.5636C74.2119 65.6345 75.2017 64.997 76.5063 62.4336C77.7649 59.9608 76.304 58.0066 75.5901 56.4708C75.5639 56.4145 75.5452 56.3551 75.5148 56.3037C74.8886 55.2448 74.9929 54.1304 76.1932 51.6783C77.3935 49.2262 75.6714 47.7774 74.2623 45.7713C72.8533 43.7651 73.7927 42.4834 74.0014 41.536C74.2101 40.5887 74.732 38.3597 71.7052 38.0253C68.6784 37.691 68 40.756 68 41.8148C68 43.75 68.7828 43.3194 68.5219 44.9912C68.2609 46.663 68.4175 48.6544 69.9309 50.0476C71.1416 51.1622 70.6789 53.0902 70.2962 54.1304L68.1044 58.8672Z" fill="var(--fill-0, #009D37)"/>
<path id="Vector 21" d="M9.3687 76.0788C10.9477 78.6136 11.8751 82.1517 11.908 84H21.4084C23.1453 81.1483 23.119 76.4086 22.8887 74.3953C22.0006 67.7611 16.1781 67.9591 19.9281 60.7308C23.6782 53.5026 20.5924 47.6849 18.7439 45.4821C17.5129 44.0153 17.6584 42.5446 18.0531 41.8185C19.1058 40.0032 21.0137 35.3825 20.2242 31.4218C19.2373 26.4709 13.2175 24.8866 9.3687 26.768C5.51993 28.6493 6.11204 33.7982 7.98709 37.3629C9.84725 40.8992 9.37639 41.4145 6.18911 44.9029L6.11204 44.9872C2.85538 48.5519 7.69102 53.1067 8.67789 54.3939C9.66475 55.6811 13.6122 57.1664 9.3687 63.2065C5.12519 69.2466 7.39497 72.9102 9.3687 76.0788Z" fill="var(--fill-0, #7FC700)"/>
<path id="Vector 26" d="M65.1844 79.7662C65.9738 81.1211 66.4376 83.0121 66.454 84H71.2042C72.0727 82.4758 72.0595 79.9426 71.9444 78.8664C71.5003 75.3206 68.589 75.4264 70.4641 71.563C72.3391 67.6996 70.7962 64.5902 69.872 63.4129C69.2565 62.6289 69.3292 61.8428 69.5265 61.4547C70.0529 60.4845 71.0068 58.0148 70.6121 55.8979C70.1187 53.2517 67.1087 52.4049 65.1844 53.4105C63.26 54.416 63.556 57.168 64.4935 59.0733C65.4236 60.9634 65.1882 61.2388 63.5946 63.1033L63.556 63.1483C61.9277 65.0536 64.3455 67.488 64.8389 68.1761C65.3324 68.8641 67.3061 69.6579 65.1844 72.8862C63.0626 76.1145 64.1975 78.0727 65.1844 79.7662Z" fill="var(--fill-0, #7FC700)"/>
<rect id="Rectangle 51" y="84" width="95" height="7" rx="3.5" fill="var(--fill-0, #FACD75)"/>
<path id="Polygon 3" d="M99.1837 86.2594C99.6211 86.6562 99.6211 87.3438 99.1837 87.7406L91.1719 95.0094C90.5293 95.5924 89.5 95.1364 89.5 94.2688L89.5 79.7312C89.5 78.8636 90.5293 78.4076 91.1719 78.9906L99.1837 86.2594Z" fill="var(--fill-0, #FACD75)"/>
</g>
</svg>
