<svg preserveAspectRatio="none" width="100%" height="100%" overflow="visible" style="display: block;" viewBox="0 0 34 34" fill="none" xmlns="http://www.w3.org/2000/svg">
<g id="fa7-solid:redo">
<rect width="34" height="34" rx="17" fill="var(--fill-0, #F7F4EF)"/>
<path id="Vector" d="M22.8501 11.1299L23.2159 11.4763V9.74736C23.2159 9.17428 23.6789 8.71127 24.252 8.71127C24.8251 8.71127 25.2881 9.17428 25.2881 9.74736V13.8917C25.2881 14.4648 24.8251 14.9278 24.252 14.9278H20.1077C19.5346 14.9278 19.0716 14.4648 19.0716 13.8917C19.0716 13.3186 19.5346 12.8556 20.1077 12.8556H21.6586L21.4125 12.6225L21.3931 12.6031C18.9647 10.1748 15.0308 10.1748 12.6025 12.6031C10.1741 15.0314 10.1741 18.9653 12.6025 21.3937C15.0308 23.822 18.9647 23.822 21.3931 21.3937C21.6586 21.1282 21.8949 20.8465 22.1021 20.5486C22.4292 20.0791 23.0767 19.9658 23.5462 20.2928C24.0157 20.6198 24.129 21.2674 23.802 21.7369C23.5268 22.1319 23.2127 22.5075 22.8598 22.8604C19.622 26.0982 14.3735 26.0982 11.139 22.8604C7.90445 19.6226 7.90122 14.3774 11.139 11.1396C14.3735 7.90506 19.6123 7.90183 22.8501 11.1299Z" fill="var(--fill-0, #B4A292)"/>
</g>
</svg>
