<svg preserveAspectRatio="none" width="100%" height="100%" overflow="visible" style="display: block;" viewBox="0 0 24 24" fill="none" xmlns="http://www.w3.org/2000/svg">
<g id="Group">
<path id="Vector" d="M21.3333 6.81196e-08H20C18.5272 6.81196e-08 17.3333 1.19391 17.3333 2.66667V21.3333C17.3333 22.8061 18.5272 24 20 24H21.3333C22.8061 24 24 22.8061 24 21.3333V2.66667C24 1.19391 22.8061 6.81196e-08 21.3333 6.81196e-08Z" fill="var(--fill-0, #BEAEA0)"/>
<path id="Vector_2" d="M12.6667 8H11.3333C9.86057 8 8.66667 9.19391 8.66667 10.6667V21.3333C8.66667 22.8061 9.86057 24 11.3333 24H12.6667C14.1394 24 15.3333 22.8061 15.3333 21.3333V10.6667C15.3333 9.19391 14.1394 8 12.6667 8Z" fill="var(--fill-0, #BEAEA0)"/>
<path id="Vector_3" d="M4 17.3333H2.66667C1.19391 17.3333 6.81196e-08 18.5272 6.81196e-08 20V21.3333C6.81196e-08 22.8061 1.19391 24 2.66667 24H4C5.47276 24 6.66667 22.8061 6.66667 21.3333V20C6.66667 18.5272 5.47276 17.3333 4 17.3333Z" fill="var(--fill-0, #BEAEA0)"/>
</g>
</svg>
