<svg preserveAspectRatio="none" width="100%" height="100%" overflow="visible" style="display: block;" viewBox="0 0 15 17.1429" fill="none" xmlns="http://www.w3.org/2000/svg">
<g id="fa-solid:calendar-day" clip-path="url(#clip0_338_5901)">
<path id="Vector" d="M0 15.5357C0 16.423 0.719866 17.1429 1.60714 17.1429H13.3929C14.2801 17.1429 15 16.423 15 15.5357V6.42857H0V15.5357ZM2.14286 9.10714C2.14286 8.8125 2.38393 8.57143 2.67857 8.57143H5.89286C6.1875 8.57143 6.42857 8.8125 6.42857 9.10714V12.3214C6.42857 12.6161 6.1875 12.8571 5.89286 12.8571H2.67857C2.38393 12.8571 2.14286 12.6161 2.14286 12.3214V9.10714ZM13.3929 2.14286H11.7857V0.535714C11.7857 0.241071 11.5446 0 11.25 0H10.1786C9.88393 0 9.64286 0.241071 9.64286 0.535714V2.14286H5.35714V0.535714C5.35714 0.241071 5.11607 0 4.82143 0H3.75C3.45536 0 3.21429 0.241071 3.21429 0.535714V2.14286H1.60714C0.719866 2.14286 0 2.86272 0 3.75V5.35714H15V3.75C15 2.86272 14.2801 2.14286 13.3929 2.14286Z" fill="var(--fill-0, #C7BFB8)"/>
</g>
<defs>
<clipPath id="clip0_338_5901">
<rect width="15" height="17.1429" fill="white"/>
</clipPath>
</defs>
</svg>
