<svg preserveAspectRatio="none" width="100%" height="100%" overflow="visible" style="display: block;" viewBox="0 0 17 20" fill="none" xmlns="http://www.w3.org/2000/svg">
<g id="solar:letter-bold">
<path id="Vector" fill-rule="evenodd" clip-rule="evenodd" d="M1.6215 6.45179C0.708313 7.39104 0.708313 8.90377 0.708313 11.9284C0.708313 14.9531 0.708313 16.4658 1.6215 17.4051C2.53468 18.3443 4.00342 18.3451 6.94166 18.3451H10.0583C12.9966 18.3451 14.4661 18.3451 15.3785 17.4051C16.2909 16.465 16.2917 14.9531 16.2917 11.9284C16.2917 8.90377 16.2917 7.39104 15.3785 6.45179C14.4653 5.51255 12.9966 5.51175 10.0583 5.51175H6.94166C4.00342 5.51175 2.53391 5.51175 1.6215 6.45179ZM13.6238 8.33509C13.723 8.45764 13.7708 8.6157 13.7568 8.77453C13.7427 8.93336 13.668 9.07996 13.549 9.18209L11.838 10.6499C11.1468 11.2435 10.5874 11.7231 10.0926 12.0504C9.57837 12.3912 9.07736 12.6062 8.5 12.6062C7.92264 12.6062 7.42163 12.3904 6.9066 12.0504C6.41261 11.7231 5.85316 11.2426 5.16204 10.6507L3.45099 9.18289C3.33185 9.08079 3.257 8.93414 3.2429 8.77522C3.2288 8.6163 3.27661 8.45813 3.3758 8.33549C3.47499 8.21285 3.61744 8.1358 3.77182 8.12129C3.9262 8.10677 4.07986 8.15598 4.19899 8.25809L5.88199 9.70104C6.60896 10.3243 7.11308 10.7558 7.54006 11.0381C7.95224 11.3108 8.23197 11.4031 8.50078 11.4031C8.76959 11.4031 9.04931 11.3116 9.46149 11.0381C9.8877 10.7558 10.3926 10.3243 11.1196 9.70104L12.8018 8.25729C12.9209 8.15532 13.0745 8.10623 13.2288 8.12082C13.3831 8.13541 13.5247 8.21248 13.6238 8.33509Z" fill="var(--fill-0, #C7BFB8)"/>
</g>
</svg>
