<svg preserveAspectRatio="none" width="100%" height="100%" overflow="visible" style="display: block;" viewBox="0 0 13.2973 13.2997" fill="none" xmlns="http://www.w3.org/2000/svg">
<g id="Group">
<path id="Vector" d="M5.2241 13.299C5.2241 12.6502 5.03791 12.0166 4.68739 11.401C4.13644 10.4387 4.13644 9.5097 4.68739 8.54743C5.40364 7.29352 5.40364 6.00543 4.68739 4.75152C4.13644 3.78925 4.13644 2.86022 4.68739 1.89795C5.03886 1.28335 5.2241 0.648799 5.2241 4.15366e-08L9.0238 2.07627e-07C9.0238 0.459764 8.89271 0.933777 8.61058 1.42679C7.89434 2.68069 7.89434 3.96879 8.61058 5.22269C9.16154 6.18496 9.16154 7.11399 8.61058 8.07626C7.89434 9.33016 7.89434 10.6183 8.61058 11.8722C8.89271 12.3661 9.0238 12.8392 9.0238 13.299L5.2241 13.299Z" fill="var(--fill-0, #C7BFB8)"/>
<path id="Vector_2" d="M12.9339 5.19592C13.4184 6.16484 13.4184 7.1344 12.9339 8.10459L12.7116 8.52066C12.1923 9.55924 12.2294 10.5981 12.8228 11.6374C13.0393 12.0041 13.1873 12.407 13.2597 12.8267C13.3015 13.085 13.085 13.2997 12.8228 13.2997L9.973 13.2997C9.973 12.6509 9.78681 12.0173 9.43629 11.4018C8.88533 10.4395 8.88533 9.51048 9.43629 8.5482C10.1525 7.2943 10.1525 6.0062 9.43629 4.7523C8.88533 3.79003 8.88533 2.861 9.43629 1.89873C9.78776 1.28413 9.973 0.649577 9.973 0.000777726L12.8228 0.00077785C13.085 0.000777862 13.3015 0.214511 13.2597 0.473841C13.1873 0.893473 13.0393 1.29646 12.8228 1.66315C12.2288 2.70236 12.1917 3.74127 12.7116 4.77985L12.9339 5.19592Z" fill="var(--fill-0, #C7BFB8)"/>
<path id="Vector_3" d="M3.91084 5.19591C4.3953 6.16484 4.3953 7.1344 3.91084 8.10459L3.68856 8.52065C3.16927 9.55924 3.20631 10.5981 3.7997 11.6374C4.0162 12.004 4.16426 12.407 4.23667 12.8267C4.27846 13.085 4.06188 13.2997 3.7997 13.2997L0.949925 13.2997C0.949925 12.6509 0.76374 12.0173 0.413217 11.4018C-0.137739 10.4395 -0.137739 9.51047 0.413218 8.5482C1.12946 7.2943 1.12946 6.0062 0.413218 4.7523C-0.137739 3.79003 -0.137739 2.861 0.413218 1.89872C0.76469 1.28412 0.949926 0.649574 0.949926 0.000774819L3.7997 0.000774944C4.06188 0.000774955 4.27846 0.214508 4.23667 0.473838C4.16426 0.89347 4.0162 1.29645 3.7997 1.66314C3.20568 2.70236 3.16863 3.74126 3.68856 4.77985L3.91084 5.19591Z" fill="var(--fill-0, #C7BFB8)"/>
</g>
</svg>
