<svg preserveAspectRatio="none" width="100%" height="100%" overflow="visible" style="display: block;" viewBox="0 0 25.1265 25.1265" fill="none" xmlns="http://www.w3.org/2000/svg">
<g id="lsicon:setting-filled" filter="url(#filter0_i_338_5895)">
<path id="Vector" fill-rule="evenodd" clip-rule="evenodd" d="M10.7934 1.57041H14.2954C14.8231 1.56256 15.3397 1.7353 15.7559 2.06037C16.1752 2.39016 16.4657 2.85343 16.5725 3.37481L16.8787 4.84314C17.0117 4.91433 17.1426 4.98761 17.2713 5.06299L18.7554 4.57617C19.0607 4.47763 19.3831 4.44337 19.7023 4.47553C20.0214 4.50769 20.3305 4.60559 20.61 4.76305C20.9555 4.95778 21.246 5.23731 21.4486 5.57966L23.2153 8.49433C23.5009 8.94597 23.6136 9.48566 23.5325 10.0138C23.4514 10.542 23.182 11.023 22.774 11.3682H22.7709L21.6057 12.3622V12.7674L22.7568 13.7929C23.1568 14.1324 23.4233 14.603 23.5087 15.1207C23.5942 15.6384 23.493 16.1696 23.2232 16.6196L21.5114 19.5406V19.5437C21.3077 19.8846 21.019 20.1667 20.6735 20.3624C20.328 20.5581 19.9377 20.6608 19.5406 20.6603C19.295 20.6616 19.0507 20.6245 18.8166 20.5504L18.8088 20.5472L17.3373 20.062C17.2064 20.1394 17.0735 20.2132 16.9384 20.2834L16.6338 21.7501C16.5262 22.2718 16.2368 22.7382 15.8171 23.0661C15.3999 23.3926 14.8832 23.5656 14.3535 23.5561H10.8232C10.2947 23.5648 9.77914 23.3919 9.36277 23.0661C8.94344 22.7386 8.65404 22.2728 8.54616 21.7517L8.23993 20.2818C8.10733 20.2117 7.97643 20.1384 7.84733 20.062L6.36329 20.5488C6.05799 20.6473 5.7356 20.6816 5.41641 20.6494C5.09722 20.6173 4.78814 20.5194 4.50864 20.3619C4.16268 20.1689 3.87349 19.8884 3.67004 19.5484L1.90176 16.6275C1.62758 16.185 1.51806 15.66 1.59245 15.1448C1.66683 14.6296 1.92035 14.157 2.3085 13.8102L3.48159 12.3308L2.36189 11.3336C1.9613 10.9937 1.69461 10.5225 1.60946 10.0041C1.5243 9.48571 1.62624 8.95392 1.89705 8.50376L1.90019 8.50062L3.67004 5.57966C3.87078 5.242 4.15546 4.96202 4.4964 4.76692C4.83735 4.57182 5.22296 4.46824 5.61578 4.46624C5.85239 4.45368 6.08585 4.47618 6.31618 4.53377L6.35073 4.54319L7.81906 5.05985C7.94783 4.98447 8.0787 4.91223 8.21166 4.84314L8.51632 3.37638C8.62386 2.85475 8.91329 2.38833 9.33293 2.06037C9.74752 1.7353 10.2658 1.56256 10.7934 1.57041ZM12.5633 9.42244C11.7303 9.42244 10.9314 9.75335 10.3424 10.3424C9.75335 10.9314 9.42245 11.7303 9.42245 12.5633C9.42245 13.3963 9.75335 14.1951 10.3424 14.7841C10.9314 15.3732 11.7303 15.7041 12.5633 15.7041C13.3963 15.7041 14.1951 15.3732 14.7842 14.7841C15.3732 14.1951 15.7041 13.3963 15.7041 12.5633C15.7041 11.7303 15.3732 10.9314 14.7842 10.3424C14.1951 9.75335 13.3963 9.42244 12.5633 9.42244ZM7.85204 12.5633C7.85204 11.3138 8.3484 10.1154 9.23192 9.23192C10.1154 8.3484 11.3138 7.85204 12.5633 7.85204C13.8128 7.85204 15.0111 8.3484 15.8946 9.23192C16.7781 10.1154 17.2745 11.3138 17.2745 12.5633C17.2745 13.8128 16.7781 15.0111 15.8946 15.8946C15.0111 16.7781 13.8128 17.2745 12.5633 17.2745C11.3138 17.2745 10.1154 16.7781 9.23192 15.8946C8.3484 15.0111 7.85204 13.8128 7.85204 12.5633Z" fill="url(#paint0_linear_338_5895)"/>
</g>
<defs>
<filter id="filter0_i_338_5895" x="0" y="0" width="25.1265" height="27.1265" filterUnits="userSpaceOnUse" color-interpolation-filters="sRGB">
<feFlood flood-opacity="0" result="BackgroundImageFix"/>
<feBlend mode="normal" in="SourceGraphic" in2="BackgroundImageFix" result="shape"/>
<feColorMatrix in="SourceAlpha" type="matrix" values="0 0 0 0 0 0 0 0 0 0 0 0 0 0 0 0 0 0 127 0" result="hardAlpha"/>
<feOffset dy="2"/>
<feGaussianBlur stdDeviation="1"/>
<feComposite in2="hardAlpha" operator="arithmetic" k2="-1" k3="1"/>
<feColorMatrix type="matrix" values="0 0 0 0 1 0 0 0 0 1 0 0 0 0 1 0 0 0 0.2 0"/>
<feBlend mode="normal" in2="shape" result="effect1_innerShadow_338_5895"/>
</filter>
<linearGradient id="paint0_linear_338_5895" x1="12.5639" y1="1.57015" x2="12.5639" y2="23.5565" gradientUnits="userSpaceOnUse">
<stop stop-color="#969696"/>
<stop offset="1" stop-color="#E0E0E0"/>
</linearGradient>
</defs>
</svg>
